<mxfile host="app.diagrams.net" modified="2023-05-17T01:04:30.736Z" agent="Mozilla/5.0 (Windows NT 10.0; Win64; x64) AppleWebKit/537.36 (KHTML, like Gecko) Chrome/113.0.0.0 Safari/537.36" etag="VHYGcP_DtkTIbLb8NQfZ" version="21.2.1" type="device">
  <diagram name="페이지-1" id="g9np7MKLt3bW4mT6_ySS">
    <mxGraphModel dx="1366" dy="750" grid="1" gridSize="10" guides="1" tooltips="1" connect="1" arrows="1" fold="1" page="1" pageScale="1" pageWidth="4681" pageHeight="3300" math="0" shadow="0">
      <root>
        <mxCell id="0" />
        <mxCell id="1" parent="0" />
        <mxCell id="_g0iXKSedKcJ-6QyVx5p-8" style="rounded=0;orthogonalLoop=1;jettySize=auto;html=1;entryX=0.5;entryY=0;entryDx=0;entryDy=0;exitX=0.5;exitY=1;exitDx=0;exitDy=0;" edge="1" parent="1" source="_g0iXKSedKcJ-6QyVx5p-1" target="_g0iXKSedKcJ-6QyVx5p-2">
          <mxGeometry relative="1" as="geometry" />
        </mxCell>
        <mxCell id="_g0iXKSedKcJ-6QyVx5p-9" style="rounded=0;orthogonalLoop=1;jettySize=auto;html=1;entryX=0.5;entryY=0;entryDx=0;entryDy=0;exitX=0.5;exitY=1;exitDx=0;exitDy=0;" edge="1" parent="1" source="_g0iXKSedKcJ-6QyVx5p-1" target="_g0iXKSedKcJ-6QyVx5p-3">
          <mxGeometry relative="1" as="geometry" />
        </mxCell>
        <mxCell id="_g0iXKSedKcJ-6QyVx5p-10" style="rounded=0;orthogonalLoop=1;jettySize=auto;html=1;entryX=0.5;entryY=0;entryDx=0;entryDy=0;exitX=0.5;exitY=1;exitDx=0;exitDy=0;" edge="1" parent="1" source="_g0iXKSedKcJ-6QyVx5p-1" target="_g0iXKSedKcJ-6QyVx5p-4">
          <mxGeometry relative="1" as="geometry" />
        </mxCell>
        <mxCell id="_g0iXKSedKcJ-6QyVx5p-11" style="rounded=0;orthogonalLoop=1;jettySize=auto;html=1;entryX=0.5;entryY=0;entryDx=0;entryDy=0;exitX=0.5;exitY=1;exitDx=0;exitDy=0;" edge="1" parent="1" source="_g0iXKSedKcJ-6QyVx5p-1" target="_g0iXKSedKcJ-6QyVx5p-5">
          <mxGeometry relative="1" as="geometry" />
        </mxCell>
        <mxCell id="_g0iXKSedKcJ-6QyVx5p-12" style="rounded=0;orthogonalLoop=1;jettySize=auto;html=1;entryX=0.5;entryY=0;entryDx=0;entryDy=0;exitX=0.5;exitY=1;exitDx=0;exitDy=0;" edge="1" parent="1" source="_g0iXKSedKcJ-6QyVx5p-1" target="_g0iXKSedKcJ-6QyVx5p-6">
          <mxGeometry relative="1" as="geometry" />
        </mxCell>
        <mxCell id="_g0iXKSedKcJ-6QyVx5p-13" style="rounded=0;orthogonalLoop=1;jettySize=auto;html=1;entryX=0.5;entryY=0;entryDx=0;entryDy=0;exitX=0.5;exitY=1;exitDx=0;exitDy=0;" edge="1" parent="1" source="_g0iXKSedKcJ-6QyVx5p-1" target="_g0iXKSedKcJ-6QyVx5p-7">
          <mxGeometry relative="1" as="geometry" />
        </mxCell>
        <mxCell id="_g0iXKSedKcJ-6QyVx5p-1" value="고객정보" style="rounded=1;arcSize=10;whiteSpace=wrap;html=1;align=center;" vertex="1" parent="1">
          <mxGeometry x="710" y="700" width="100" height="40" as="geometry" />
        </mxCell>
        <mxCell id="_g0iXKSedKcJ-6QyVx5p-2" value="고객ID" style="ellipse;whiteSpace=wrap;html=1;align=center;fontStyle=4;" vertex="1" parent="1">
          <mxGeometry x="410" y="830" width="100" height="40" as="geometry" />
        </mxCell>
        <mxCell id="_g0iXKSedKcJ-6QyVx5p-3" value="고객이름" style="ellipse;whiteSpace=wrap;html=1;align=center;" vertex="1" parent="1">
          <mxGeometry x="530" y="830" width="100" height="40" as="geometry" />
        </mxCell>
        <mxCell id="_g0iXKSedKcJ-6QyVx5p-4" value="전화번호" style="ellipse;whiteSpace=wrap;html=1;align=center;" vertex="1" parent="1">
          <mxGeometry x="650" y="830" width="100" height="40" as="geometry" />
        </mxCell>
        <mxCell id="_g0iXKSedKcJ-6QyVx5p-5" value="주소" style="ellipse;whiteSpace=wrap;html=1;align=center;" vertex="1" parent="1">
          <mxGeometry x="770" y="830" width="100" height="40" as="geometry" />
        </mxCell>
        <mxCell id="_g0iXKSedKcJ-6QyVx5p-6" value="생년월일" style="ellipse;whiteSpace=wrap;html=1;align=center;" vertex="1" parent="1">
          <mxGeometry x="890" y="830" width="100" height="40" as="geometry" />
        </mxCell>
        <mxCell id="_g0iXKSedKcJ-6QyVx5p-7" value="직업" style="ellipse;whiteSpace=wrap;html=1;align=center;" vertex="1" parent="1">
          <mxGeometry x="1010" y="830" width="100" height="40" as="geometry" />
        </mxCell>
        <mxCell id="_g0iXKSedKcJ-6QyVx5p-15" value="계좌정보" style="rounded=1;arcSize=10;whiteSpace=wrap;html=1;align=center;" vertex="1" parent="1">
          <mxGeometry x="1260" y="810" width="100" height="40" as="geometry" />
        </mxCell>
        <mxCell id="_g0iXKSedKcJ-6QyVx5p-16" value="계좌번호" style="ellipse;whiteSpace=wrap;html=1;align=center;fontStyle=4;" vertex="1" parent="1">
          <mxGeometry x="950" y="960" width="100" height="40" as="geometry" />
        </mxCell>
        <mxCell id="_g0iXKSedKcJ-6QyVx5p-17" value="입출일자" style="ellipse;whiteSpace=wrap;html=1;align=center;" vertex="1" parent="1">
          <mxGeometry x="1070" y="960" width="100" height="40" as="geometry" />
        </mxCell>
        <mxCell id="_g0iXKSedKcJ-6QyVx5p-18" value="입출시각" style="ellipse;whiteSpace=wrap;html=1;align=center;" vertex="1" parent="1">
          <mxGeometry x="1190" y="960" width="100" height="40" as="geometry" />
        </mxCell>
        <mxCell id="_g0iXKSedKcJ-6QyVx5p-19" value="입출구분" style="ellipse;whiteSpace=wrap;html=1;align=center;" vertex="1" parent="1">
          <mxGeometry x="1310" y="960" width="100" height="40" as="geometry" />
        </mxCell>
        <mxCell id="_g0iXKSedKcJ-6QyVx5p-20" value="입금" style="ellipse;whiteSpace=wrap;html=1;align=center;" vertex="1" parent="1">
          <mxGeometry x="1430" y="960" width="100" height="40" as="geometry" />
        </mxCell>
        <mxCell id="_g0iXKSedKcJ-6QyVx5p-21" value="출금" style="ellipse;whiteSpace=wrap;html=1;align=center;" vertex="1" parent="1">
          <mxGeometry x="1550" y="960" width="100" height="40" as="geometry" />
        </mxCell>
        <mxCell id="_g0iXKSedKcJ-6QyVx5p-22" style="rounded=0;orthogonalLoop=1;jettySize=auto;html=1;entryX=0.5;entryY=0;entryDx=0;entryDy=0;exitX=0.5;exitY=1;exitDx=0;exitDy=0;" edge="1" parent="1" source="_g0iXKSedKcJ-6QyVx5p-15" target="_g0iXKSedKcJ-6QyVx5p-16">
          <mxGeometry relative="1" as="geometry">
            <mxPoint x="1310" y="880" as="sourcePoint" />
            <mxPoint x="1010" y="940" as="targetPoint" />
          </mxGeometry>
        </mxCell>
        <mxCell id="_g0iXKSedKcJ-6QyVx5p-23" style="rounded=0;orthogonalLoop=1;jettySize=auto;html=1;entryX=0.5;entryY=0;entryDx=0;entryDy=0;exitX=0.5;exitY=1;exitDx=0;exitDy=0;" edge="1" parent="1" source="_g0iXKSedKcJ-6QyVx5p-15" target="_g0iXKSedKcJ-6QyVx5p-17">
          <mxGeometry relative="1" as="geometry">
            <mxPoint x="1320" y="860" as="sourcePoint" />
            <mxPoint x="1010" y="950" as="targetPoint" />
          </mxGeometry>
        </mxCell>
        <mxCell id="_g0iXKSedKcJ-6QyVx5p-24" style="rounded=0;orthogonalLoop=1;jettySize=auto;html=1;entryX=0.5;entryY=0;entryDx=0;entryDy=0;exitX=0.5;exitY=1;exitDx=0;exitDy=0;" edge="1" parent="1" source="_g0iXKSedKcJ-6QyVx5p-15" target="_g0iXKSedKcJ-6QyVx5p-18">
          <mxGeometry relative="1" as="geometry">
            <mxPoint x="1320" y="890" as="sourcePoint" />
            <mxPoint x="1010" y="950" as="targetPoint" />
          </mxGeometry>
        </mxCell>
        <mxCell id="_g0iXKSedKcJ-6QyVx5p-25" style="rounded=0;orthogonalLoop=1;jettySize=auto;html=1;entryX=0.5;entryY=0;entryDx=0;entryDy=0;exitX=0.5;exitY=1;exitDx=0;exitDy=0;" edge="1" parent="1" source="_g0iXKSedKcJ-6QyVx5p-15" target="_g0iXKSedKcJ-6QyVx5p-19">
          <mxGeometry relative="1" as="geometry">
            <mxPoint x="1330" y="900" as="sourcePoint" />
            <mxPoint x="1020" y="960" as="targetPoint" />
          </mxGeometry>
        </mxCell>
        <mxCell id="_g0iXKSedKcJ-6QyVx5p-26" style="rounded=0;orthogonalLoop=1;jettySize=auto;html=1;entryX=0.5;entryY=0;entryDx=0;entryDy=0;exitX=0.5;exitY=1;exitDx=0;exitDy=0;" edge="1" parent="1" source="_g0iXKSedKcJ-6QyVx5p-15" target="_g0iXKSedKcJ-6QyVx5p-20">
          <mxGeometry relative="1" as="geometry">
            <mxPoint x="1340" y="910" as="sourcePoint" />
            <mxPoint x="1030" y="970" as="targetPoint" />
          </mxGeometry>
        </mxCell>
        <mxCell id="_g0iXKSedKcJ-6QyVx5p-27" style="rounded=0;orthogonalLoop=1;jettySize=auto;html=1;entryX=0.5;entryY=0;entryDx=0;entryDy=0;exitX=0.5;exitY=1;exitDx=0;exitDy=0;" edge="1" parent="1" source="_g0iXKSedKcJ-6QyVx5p-15" target="_g0iXKSedKcJ-6QyVx5p-21">
          <mxGeometry relative="1" as="geometry">
            <mxPoint x="1690" y="820" as="sourcePoint" />
            <mxPoint x="1380" y="880" as="targetPoint" />
          </mxGeometry>
        </mxCell>
        <mxCell id="_g0iXKSedKcJ-6QyVx5p-29" value="거래내역" style="shape=rhombus;perimeter=rhombusPerimeter;whiteSpace=wrap;html=1;align=center;" vertex="1" parent="1">
          <mxGeometry x="1040" y="560" width="120" height="60" as="geometry" />
        </mxCell>
        <mxCell id="_g0iXKSedKcJ-6QyVx5p-30" value="" style="edgeStyle=entityRelationEdgeStyle;fontSize=12;html=1;endArrow=ERoneToMany;rounded=0;exitX=0.5;exitY=0;exitDx=0;exitDy=0;entryX=0;entryY=0.5;entryDx=0;entryDy=0;" edge="1" parent="1" source="_g0iXKSedKcJ-6QyVx5p-1" target="_g0iXKSedKcJ-6QyVx5p-29">
          <mxGeometry width="100" height="100" relative="1" as="geometry">
            <mxPoint x="930" y="780" as="sourcePoint" />
            <mxPoint x="1030" y="680" as="targetPoint" />
          </mxGeometry>
        </mxCell>
        <mxCell id="_g0iXKSedKcJ-6QyVx5p-31" value="" style="edgeStyle=entityRelationEdgeStyle;fontSize=12;html=1;endArrow=ERoneToMany;rounded=0;exitX=0.5;exitY=0;exitDx=0;exitDy=0;entryX=1;entryY=0.5;entryDx=0;entryDy=0;" edge="1" parent="1" source="_g0iXKSedKcJ-6QyVx5p-15" target="_g0iXKSedKcJ-6QyVx5p-29">
          <mxGeometry width="100" height="100" relative="1" as="geometry">
            <mxPoint x="950" y="750" as="sourcePoint" />
            <mxPoint x="1230" y="640" as="targetPoint" />
          </mxGeometry>
        </mxCell>
      </root>
    </mxGraphModel>
  </diagram>
</mxfile>
